# File created by Blade
# Date/Time:  Thu Sep 25 14:26:36 2014
# Frame Rate: 120.000 fps
#------------------------------------------------------
:FULLY-SPECIFIED
:DEGREES
866
root 18.486069 28.642685 -2.477369 56.869841 85.011286 113.090088
Spine -47.601325 9.299034 -1.771451
Head -109.825230 -2.071296 2.333071
LeftShoulder -14.320168 -5.130438 34.381597
LeftArm 113.821901 -73.025184 -103.538786
LeftForeArm 31.208485 -0.000000 59.618307
LeftHand -50.507404 -0.000000 63.272214
LeftHandThumb1 -26.253704 0.000000 33.147579
RightShoulder -28.192115 27.046573 -53.474033
RightArm 57.565991 55.598390 64.983214
RightForeArm -40.624030 -0.000000 76.127240
RightHand -14.998547 0.000000 -42.465573
RightHandThumb1 -24.326973 -0.000000 -32.862282
LeftUpLeg 39.008831 1.668582 22.193934
LeftLeg 54.398916 -0.000000 -0.000000
LeftFoot -39.538985 18.197663 -34.399509
LeftToeBase 14.375094 -0.000000 -0.000000
RightUpLeg 38.537224 4.846796 -27.491155
RightLeg 56.445399 -0.000000 -0.000000
RightFoot -32.687656 -30.383012 17.844090
RightToeBase 6.796732 -0.000000 -0.000000
867
root 18.401428 28.554976 -2.488883 55.787497 85.173228 112.661167
Spine -47.717925 11.039487 -2.610673
Head -109.921608 -4.593670 0.662970
LeftShoulder -12.177938 -7.227367 32.966322
LeftArm 112.108517 -74.296137 -100.847105
LeftForeArm 30.646210 -0.000000 58.981393
LeftHand -49.542910 -0.000000 62.473695
LeftHandThumb1 -26.253704 0.000000 33.147579
RightShoulder -30.057749 25.283549 -55.761569
RightArm 57.525201 55.498190 66.306682
RightForeArm -41.395729 -0.000000 77.158672
RightHand -15.711189 -0.000000 -42.473438
RightHandThumb1 -24.326973 -0.000000 -32.862282
LeftUpLeg 39.016728 1.432688 22.395650
LeftLeg 55.245834 -0.000000 -0.000000
LeftFoot -39.917592 18.473942 -34.557981
LeftToeBase 14.628678 -0.000000 -0.000000
RightUpLeg 38.600741 5.073678 -27.299626
RightLeg 57.163985 -0.000000 -0.000000
RightFoot -32.725643 -30.913540 17.853330
RightToeBase 6.821417 -0.000000 -0.000000
868
root 18.327329 28.466220 -2.504030 55.718943 85.195217 113.230323
Spine -47.672824 11.026723 -2.652987
Head -109.822556 -4.590336 0.458004
LeftShoulder -12.047530 -7.411113 33.046052
LeftArm 112.725717 -74.751184 -101.538064
LeftForeArm 30.864815 -0.000000 59.124961
LeftHand -50.051663 -0.000000 63.281375
LeftHandThumb1 -26.253704 0.000000 33.147579
RightShoulder -30.113033 25.297529 -56.085068
RightArm 57.117683 55.948377 66.330744
RightForeArm -41.621405 -0.000000 77.871109
RightHand -15.871314 -0.000000 -42.244600
RightHandThumb1 -24.326973 -0.000000 -32.862282
LeftUpLeg 39.044146 1.210434 22.422559
LeftLeg 56.043331 -0.000000 -0.000000
LeftFoot -40.241345 18.757310 -34.699058
LeftToeBase 14.705279 -0.000000 -0.000000
RightUpLeg 38.674706 5.299534 -27.324634
RightLeg 57.881230 -0.000000 -0.000000
RightFoot -32.849260 -31.280692 17.943273
RightToeBase 6.749164 -0.000000 -0.000000
869
root 18.251880 28.376572 -2.521638 55.588621 85.194204 113.766670
Spine -47.570851 11.134087 -2.698509
Head -109.779789 -4.767629 0.086087
LeftShoulder -11.890811 -7.331410 33.038271
LeftArm 114.422456 -75.082742 -103.426642
LeftForeArm 30.841427 -0.000000 59.252589
LeftHand -49.898962 -0.000000 64.835355
LeftHandThumb1 -26.253704 0.000000 33.147579
RightShoulder -30.397621 24.782443 -56.607847
RightArm 57.215968 56.350452 67.206010
RightForeArm -41.954912 -0.000000 78.776260
RightHand -16.614452 -0.000000 -42.199625
RightHandThumb1 -24.326973 -0.000000 -32.862282
LeftUpLeg 39.105740 1.011168 22.439243
LeftLeg 56.841608 -0.000000 -0.000000
LeftFoot -40.571119 19.105674 -34.777581
LeftToeBase 14.912196 -0.000000 -0.000000
RightUpLeg 38.766596 5.544341 -27.395793
RightLeg 58.597687 -0.000000 -0.000000
RightFoot -32.907677 -31.660329 17.866385
RightToeBase 6.591451 -0.000000 -0.000000
870
root 18.170348 28.282811 -2.535663 54.945317 85.206906 113.724384
Spine -47.539063 11.231412 -2.750764
Head -109.695508 -4.938128 -0.021173
LeftShoulder -11.849351 -7.190504 33.116789
LeftArm 116.204289 -75.261857 -105.438919
LeftForeArm 31.037400 -0.000000 59.462977
LeftHand -50.298746 -0.000000 65.064199
LeftHandThumb1 -26.253704 0.000000 33.147579
RightShoulder -30.699088 24.564837 -56.823072
RightArm 57.301032 56.544114 67.458728
RightForeArm -42.238980 -0.000000 79.298253
RightHand -16.684754 -0.000000 -42.341871
RightHandThumb1 -24.326973 -0.000000 -32.862282
LeftUpLeg 39.108573 0.866184 22.534271
LeftLeg 57.655120 -0.000000 -0.000000
LeftFoot -40.876609 19.226264 -34.849624
LeftToeBase 15.113628 -0.000000 -0.000000
RightUpLeg 38.761658 5.787703 -27.418213
RightLeg 59.363850 -0.000000 -0.000000
RightFoot -33.004143 -31.931366 17.797141
RightToeBase 6.374917 -0.000000 -0.000000
871
root 18.087904 28.189820 -2.552977 53.670869 85.198495 113.099032
Spine -47.448240 11.340579 -2.740125
Head -109.601261 -5.020223 -0.136924
LeftShoulder -11.799159 -7.073818 33.218947
LeftArm 118.090300 -75.463904 -107.568031
LeftForeArm 31.255290 0.000000 59.647831
LeftHand -49.806027 -0.000000 64.508706
LeftHandThumb1 -26.253704 0.000000 33.147579
RightShoulder -30.861970 24.486475 -57.143187
RightArm 56.984568 56.868563 67.436457
RightForeArm -42.671169 -0.000000 79.854165
RightHand -16.749089 0.000000 -42.546328
RightHandThumb1 -24.326973 -0.000000 -32.862282
LeftUpLeg 39.200555 0.784602 22.667503
LeftLeg 58.424195 -0.000000 -0.000000
LeftFoot -41.222948 19.366840 -35.010266
LeftToeBase 15.262859 -0.000000 -0.000000
RightUpLeg 38.779467 6.097186 -27.436700
RightLeg 60.112186 -0.000000 -0.000000
RightFoot -33.131735 -32.209407 17.745639
RightToeBase 6.466363 -0.000000 -0.000000
872
root 18.005921 28.101365 -2.572679 52.719345 85.182831 112.784225
Spine -47.390985 11.388190 -2.760442
Head -109.429938 -5.011274 -0.194820
LeftShoulder -12.478784 -5.327145 33.886576
LeftArm 123.789449 -73.863858 -114.897371
LeftForeArm 31.894822 -0.000000 60.707640
LeftHand -50.080064 -0.000000 63.294178
LeftHandThumb1 -26.253704 0.000000 33.147579
RightShoulder -30.958108 24.481200 -57.318425
RightArm 56.738862 57.223556 67.357553
RightForeArm -42.971088 -0.000000 80.353597
RightHand -16.565718 -0.000000 -42.496877
RightHandThumb1 -24.326973 -0.000000 -32.862282
LeftUpLeg 39.313522 0.658547 22.741978
LeftLeg 59.157680 -0.000000 -0.000000
LeftFoot -41.486600 19.392152 -35.067192
LeftToeBase 15.291694 -0.000000 -0.000000
RightUpLeg 38.816820 6.371861 -27.501041
RightLeg 60.799586 -0.000000 -0.000000
RightFoot -33.216602 -32.522084 17.612456
RightToeBase 6.610308 -0.000000 -0.000000
873
root 17.920006 28.014145 -2.592847 52.290122 85.159678 113.011947
Spine -47.284318 11.339005 -2.751655
Head -109.279804 -5.003502 -0.213987
LeftShoulder -12.700559 -5.444541 34.018472
LeftArm 124.055745 -73.967460 -115.217691
LeftForeArm 31.603543 0.000000 60.712370
LeftHand -49.782380 -0.000000 63.265945
LeftHandThumb1 -26.253704 0.000000 33.147579
RightShoulder -31.154864 24.510027 -57.481825
RightArm 57.166047 57.396797 68.036628
RightForeArm -43.359990 -0.000000 80.823137
RightHand -16.395498 -0.000000 -42.260428
RightHandThumb1 -24.326973 -0.000000 -32.862282
LeftUpLeg 39.430604 0.504680 22.781283
LeftLeg 59.874541 -0.000000 -0.000000
LeftFoot -41.747145 19.403613 -35.121452
LeftToeBase 15.318237 -0.000000 -0.000000
RightUpLeg 38.889494 6.643274 -27.581915
RightLeg 61.477957 -0.000000 -0.000000
RightFoot -33.339076 -32.701886 17.608883
RightToeBase 6.659160 -0.000000 -0.000000
874
root 17.832338 27.930502 -2.615124 52.402908 85.120594 113.863292
Spine -47.075840 11.271758 -2.770810
Head -109.177578 -5.017530 -0.232143
LeftShoulder -12.535596 -6.541610 33.756772
LeftArm 122.384783 -74.905595 -112.739929
LeftForeArm 31.294000 0.000000 60.419535
LeftHand -50.542658 -0.000000 63.264275
LeftHandThumb1 -26.253704 0.000000 33.147579
RightShoulder -31.407733 24.558382 -57.658275
RightArm 57.290022 57.492534 68.296562
RightForeArm -43.529666 -0.000000 81.224581
RightHand -16.435664 -0.000000 -42.592177
RightHandThumb1 -24.326973 -0.000000 -32.862282
LeftUpLeg 39.610778 0.275778 22.744197
LeftLeg 60.573252 -0.000000 -0.000000
LeftFoot -41.969103 19.368263 -35.180910
LeftToeBase 15.307883 -0.000000 -0.000000
RightUpLeg 39.069240 6.926151 -27.684017
RightLeg 62.112415 -0.000000 -0.000000
RightFoot -33.403944 -32.919623 17.558223
RightToeBase 6.661407 -0.000000 -0.000000
875
root 17.735908 27.845209 -2.635615 51.028313 85.115881 113.127783
Spine -47.059528 11.425603 -2.771214
Head -109.027966 -5.255860 -0.262431
LeftShoulder -12.762313 -5.575481 34.091516
LeftArm 125.843216 -74.215689 -117.178840
LeftForeArm 31.544854 -0.000000 61.095822
LeftHand -50.289192 -0.000000 62.790687
LeftHandThumb1 -26.253704 0.000000 33.147579
RightShoulder -31.572370 24.480867 -57.896561
RightArm 57.265408 57.718853 68.422086
RightForeArm -43.719037 0.000000 81.665000
RightHand -16.528576 -0.000000 -42.556447
RightHandThumb1 -24.326973 -0.000000 -32.862282
LeftUpLeg 39.722044 0.182881 22.856199
LeftLeg 61.274314 -0.000000 -0.000000
LeftFoot -42.153092 19.431940 -35.127373
LeftToeBase 15.394211 -0.000000 -0.000000
RightUpLeg 39.077910 7.242126 -27.651830
RightLeg 62.792112 -0.000000 -0.000000
RightFoot -33.484521 -33.113017 17.558871
RightToeBase 6.641983 -0.000000 -0.000000
876
root 17.636862 27.762289 -2.654926 50.233996 85.136654 113.016734
Spine -46.963873 11.390724 -2.766056
Head -108.905985 -5.203639 -0.381734
LeftShoulder -13.755287 -2.593759 35.054610
LeftArm 132.034457 -71.490467 -125.875653
LeftForeArm 32.330220 -0.000000 62.552471
LeftHand -50.146733 -0.000000 62.568973
LeftHandThumb1 -26.253704 0.000000 33.147579
RightShoulder -31.697822 24.490921 -57.877130
RightArm 57.278806 57.916250 68.354297
RightForeArm -43.690383 0.000000 81.989130
RightHand -16.620442 -0.000000 -42.791419
RightHandThumb1 -24.326973 -0.000000 -32.862282
LeftUpLeg 39.861781 0.006412 22.912036
LeftLeg 61.946529 -0.000000 -0.000000
LeftFoot -42.427302 19.364980 -35.248010
LeftToeBase 15.400660 -0.000000 -0.000000
RightUpLeg 39.172880 7.522062 -27.623924
RightLeg 63.430809 -0.000000 -0.000000
RightFoot -33.556315 -33.285585 17.534558
RightToeBase 6.646479 -0.000000 -0.000000
